<svg xmlns="http://www.w3.org/2000/svg" xmlns:xlink="http://www.w3.org/1999/xlink" width="500" zoomAndPan="magnify" viewBox="0 0 375 112.499997" height="150" preserveAspectRatio="xMidYMid meet" version="1.0"><defs><g/></defs><g fill="#ffffff" fill-opacity="1"><g transform="translate(61.912485, 75.910612)"><g><path d="M 40.140625 -18.578125 C 40.140625 -15.109375 39.285156 -11.898438 37.578125 -8.953125 C 35.867188 -6.003906 33.550781 -3.675781 30.625 -1.96875 C 27.695312 -0.257812 24.5 0.59375 21.03125 0.59375 C 17.5625 0.59375 14.363281 -0.257812 11.4375 -1.96875 C 8.519531 -3.675781 6.191406 -6.003906 4.453125 -8.953125 C 2.722656 -11.898438 1.859375 -15.109375 1.859375 -18.578125 C 1.859375 -22.046875 2.722656 -25.253906 4.453125 -28.203125 C 6.191406 -31.148438 8.519531 -33.476562 11.4375 -35.1875 C 14.363281 -36.90625 17.5625 -37.765625 21.03125 -37.765625 C 24.644531 -37.765625 27.769531 -36.820312 30.40625 -34.9375 L 30.40625 -52.03125 L 40.140625 -52.03125 Z M 20.953125 -28.3125 C 18.234375 -28.3125 15.976562 -27.382812 14.1875 -25.53125 C 12.40625 -23.675781 11.515625 -21.359375 11.515625 -18.578125 C 11.515625 -15.804688 12.40625 -13.488281 14.1875 -11.625 C 15.976562 -9.769531 18.234375 -8.84375 20.953125 -8.84375 C 23.679688 -8.84375 25.960938 -9.769531 27.796875 -11.625 C 29.628906 -13.488281 30.546875 -15.804688 30.546875 -18.578125 C 30.546875 -21.359375 29.628906 -23.675781 27.796875 -25.53125 C 25.960938 -27.382812 23.679688 -28.3125 20.953125 -28.3125 Z M 20.953125 -28.3125 "/></g></g></g><g fill="#ffffff" fill-opacity="1"><g transform="translate(104.279919, 75.910612)"><g><path d="M 1.859375 -18.5 C 1.859375 -21.925781 2.6875 -25.113281 4.34375 -28.0625 C 6.007812 -31.007812 8.289062 -33.363281 11.1875 -35.125 C 14.082031 -36.882812 17.265625 -37.765625 20.734375 -37.765625 C 23.910156 -37.765625 26.957031 -37.03125 29.875 -35.5625 C 32.800781 -34.101562 35.21875 -31.984375 37.125 -29.203125 C 39.03125 -26.429688 40.035156 -23.164062 40.140625 -19.40625 C 40.191406 -17.8125 40.09375 -16.273438 39.84375 -14.796875 L 12.265625 -14.796875 C 12.710938 -12.960938 13.691406 -11.507812 15.203125 -10.4375 C 16.710938 -9.375 18.554688 -8.84375 20.734375 -8.84375 C 22.273438 -8.84375 23.523438 -9.039062 24.484375 -9.4375 C 25.453125 -9.832031 26.332031 -10.351562 27.125 -11 L 38.65625 -10.921875 C 37.113281 -7.503906 34.753906 -4.726562 31.578125 -2.59375 C 28.410156 -0.46875 24.894531 0.59375 21.03125 0.59375 C 17.507812 0.59375 14.285156 -0.257812 11.359375 -1.96875 C 8.441406 -3.675781 6.128906 -5.992188 4.421875 -8.921875 C 2.710938 -11.847656 1.859375 -15.039062 1.859375 -18.5 Z M 29.8125 -22.515625 C 29.0625 -24.253906 27.878906 -25.65625 26.265625 -26.71875 C 24.660156 -27.78125 22.914062 -28.3125 21.03125 -28.3125 C 18.945312 -28.3125 17.160156 -27.789062 15.671875 -26.75 C 14.191406 -25.71875 13.054688 -24.304688 12.265625 -22.515625 Z M 29.8125 -22.515625 "/></g></g></g><g fill="#ffffff" fill-opacity="1"><g transform="translate(146.275711, 75.910612)"><g><path d="M 21.03125 0.59375 C 17.5625 0.59375 14.351562 -0.257812 11.40625 -1.96875 C 8.457031 -3.675781 6.128906 -6.003906 4.421875 -8.953125 C 2.710938 -11.898438 1.859375 -15.109375 1.859375 -18.578125 C 1.859375 -22.046875 2.710938 -25.253906 4.421875 -28.203125 C 6.128906 -31.148438 8.457031 -33.476562 11.40625 -35.1875 C 14.351562 -36.90625 17.5625 -37.765625 21.03125 -37.765625 C 25.394531 -37.765625 29.273438 -36.460938 32.671875 -33.859375 C 36.066406 -31.253906 38.332031 -27.921875 39.46875 -23.859375 L 29.21875 -23.859375 C 28.375 -25.242188 27.242188 -26.332031 25.828125 -27.125 C 24.410156 -27.914062 22.835938 -28.3125 21.109375 -28.3125 C 18.378906 -28.3125 16.097656 -27.382812 14.265625 -25.53125 C 12.429688 -23.675781 11.515625 -21.359375 11.515625 -18.578125 C 11.515625 -15.804688 12.429688 -13.488281 14.265625 -11.625 C 16.097656 -9.769531 18.378906 -8.84375 21.109375 -8.84375 C 22.742188 -8.84375 24.226562 -9.203125 25.5625 -9.921875 C 26.90625 -10.640625 28.019531 -11.644531 28.90625 -12.9375 L 39.390625 -12.9375 C 38.203125 -8.96875 35.921875 -5.71875 32.546875 -3.1875 C 29.179688 -0.664062 25.34375 0.59375 21.03125 0.59375 Z M 21.03125 0.59375 "/></g></g><g transform="translate(187.602544, 75.910612)"><g><path d="M 2.234375 -52.03125 L 11.890625 -52.03125 L 11.890625 -24.90625 L 24.234375 -37.171875 L 36.5625 -37.171875 L 22.453125 -22.890625 L 38.953125 0 L 28.171875 0 L 15.90625 -16.796875 L 11.890625 -12.78125 L 11.890625 0 L 2.234375 0 Z M 2.234375 -52.03125 "/></g></g></g><g fill="#ffffff" fill-opacity="1"><g transform="translate(226.550848, 75.910612)"><g><path d="M 40.140625 -18.578125 C 40.140625 -15.109375 39.285156 -11.898438 37.578125 -8.953125 C 35.867188 -6.003906 33.550781 -3.675781 30.625 -1.96875 C 27.695312 -0.257812 24.5 0.59375 21.03125 0.59375 C 17.5625 0.59375 14.363281 -0.257812 11.4375 -1.96875 C 8.519531 -3.675781 6.191406 -6.003906 4.453125 -8.953125 C 2.722656 -11.898438 1.859375 -15.109375 1.859375 -18.578125 C 1.859375 -22.046875 2.722656 -25.253906 4.453125 -28.203125 C 6.191406 -31.148438 8.519531 -33.476562 11.4375 -35.1875 C 14.363281 -36.90625 17.5625 -37.765625 21.03125 -37.765625 C 24.644531 -37.765625 27.769531 -36.820312 30.40625 -34.9375 L 30.40625 -52.03125 L 40.140625 -52.03125 Z M 20.953125 -28.3125 C 18.234375 -28.3125 15.976562 -27.382812 14.1875 -25.53125 C 12.40625 -23.675781 11.515625 -21.359375 11.515625 -18.578125 C 11.515625 -15.804688 12.40625 -13.488281 14.1875 -11.625 C 15.976562 -9.769531 18.234375 -8.84375 20.953125 -8.84375 C 23.679688 -8.84375 25.960938 -9.769531 27.796875 -11.625 C 29.628906 -13.488281 30.546875 -15.804688 30.546875 -18.578125 C 30.546875 -21.359375 29.628906 -23.675781 27.796875 -25.53125 C 25.960938 -27.382812 23.679688 -28.3125 20.953125 -28.3125 Z M 20.953125 -28.3125 "/></g></g></g><g fill="#ffffff" fill-opacity="1"><g transform="translate(268.918282, 75.910612)"><g><path d="M 2.234375 -19.546875 C 2.234375 -25.441406 3.691406 -29.875 6.609375 -32.84375 C 9.535156 -35.820312 13.378906 -37.3125 18.140625 -37.3125 L 18.578125 -37.3125 L 18.578125 -27.875 L 18.203125 -27.875 C 16.078125 -27.875 14.492188 -27.203125 13.453125 -25.859375 C 12.410156 -24.523438 11.890625 -22.421875 11.890625 -19.546875 L 11.890625 0 L 2.234375 0 Z M 2.234375 -19.546875 "/></g></g></g><g fill="#ffffff" fill-opacity="1"><g transform="translate(289.730347, 75.910612)"><g><path d="M 21.03125 -37.765625 C 24.5 -37.765625 27.707031 -36.90625 30.65625 -35.1875 C 33.601562 -33.476562 35.929688 -31.148438 37.640625 -28.203125 C 39.359375 -25.253906 40.21875 -22.046875 40.21875 -18.578125 C 40.21875 -15.109375 39.359375 -11.898438 37.640625 -8.953125 C 35.929688 -6.003906 33.601562 -3.675781 30.65625 -1.96875 C 27.707031 -0.257812 24.5 0.59375 21.03125 0.59375 C 17.5625 0.59375 14.351562 -0.257812 11.40625 -1.96875 C 8.457031 -3.675781 6.128906 -6.003906 4.421875 -8.953125 C 2.710938 -11.898438 1.859375 -15.109375 1.859375 -18.578125 C 1.859375 -22.046875 2.710938 -25.253906 4.421875 -28.203125 C 6.128906 -31.148438 8.457031 -33.476562 11.40625 -35.1875 C 14.351562 -36.90625 17.5625 -37.765625 21.03125 -37.765625 Z M 21.109375 -28.3125 C 18.378906 -28.3125 16.097656 -27.382812 14.265625 -25.53125 C 12.429688 -23.675781 11.515625 -21.359375 11.515625 -18.578125 C 11.515625 -15.804688 12.429688 -13.488281 14.265625 -11.625 C 16.097656 -9.769531 18.378906 -8.84375 21.109375 -8.84375 C 23.835938 -8.84375 26.09375 -9.769531 27.875 -11.625 C 29.65625 -13.488281 30.546875 -15.804688 30.546875 -18.578125 C 30.546875 -21.359375 29.65625 -23.675781 27.875 -25.53125 C 26.09375 -27.382812 23.835938 -28.3125 21.109375 -28.3125 Z M 21.109375 -28.3125 "/></g></g></g><g fill="#ffffff" fill-opacity="1"><g transform="translate(331.800467, 75.910612)"><g><path d="M 2.234375 -18.578125 C 2.234375 -22.046875 3.085938 -25.253906 4.796875 -28.203125 C 6.503906 -31.148438 8.816406 -33.476562 11.734375 -35.1875 C 14.660156 -36.90625 17.859375 -37.765625 21.328125 -37.765625 C 24.796875 -37.765625 27.992188 -36.90625 30.921875 -35.1875 C 33.847656 -33.476562 36.175781 -31.148438 37.90625 -28.203125 C 39.644531 -25.253906 40.515625 -22.046875 40.515625 -18.578125 C 40.515625 -15.109375 39.644531 -11.898438 37.90625 -8.953125 C 36.175781 -6.003906 33.847656 -3.675781 30.921875 -1.96875 C 27.992188 -0.257812 24.796875 0.59375 21.328125 0.59375 C 17.710938 0.59375 14.59375 -0.347656 11.96875 -2.234375 L 11.96875 14.859375 L 2.234375 14.859375 Z M 21.40625 -8.84375 C 24.132812 -8.84375 26.390625 -9.769531 28.171875 -11.625 C 29.953125 -13.488281 30.84375 -15.804688 30.84375 -18.578125 C 30.84375 -21.359375 29.953125 -23.675781 28.171875 -25.53125 C 26.390625 -27.382812 24.132812 -28.3125 21.40625 -28.3125 C 18.675781 -28.3125 16.394531 -27.382812 14.5625 -25.53125 C 12.726562 -23.675781 11.8125 -21.359375 11.8125 -18.578125 C 11.8125 -15.804688 12.726562 -13.488281 14.5625 -11.625 C 16.394531 -9.769531 18.675781 -8.84375 21.40625 -8.84375 Z M 21.40625 -8.84375 "/></g></g></g><path fill="#00bf63" d="M 32.425781 24.726562 C 25.355469 24.726562 18.574219 27.535156 13.574219 32.535156 C 8.578125 37.535156 5.765625 44.316406 5.765625 51.386719 C 5.765625 58.453125 8.574219 65.238281 13.574219 70.234375 C 18.574219 75.234375 25.355469 78.042969 32.425781 78.042969 C 39.496094 78.042969 46.277344 75.234375 51.277344 70.234375 C 56.273438 65.234375 59.085938 58.453125 59.085938 51.386719 C 59.074219 44.316406 56.261719 37.542969 51.265625 32.546875 C 46.269531 27.546875 39.492188 24.734375 32.425781 24.726562 Z M 32.425781 72.121094 C 26.925781 72.121094 21.652344 69.9375 17.765625 66.046875 C 13.875 62.160156 11.691406 56.882812 11.691406 51.386719 C 11.691406 45.886719 13.875 40.613281 17.765625 36.722656 C 21.652344 32.835938 26.925781 30.652344 32.425781 30.652344 C 37.925781 30.652344 43.199219 32.835938 47.085938 36.722656 C 50.976562 40.613281 53.160156 45.886719 53.160156 51.386719 C 53.15625 56.882812 50.96875 62.15625 47.082031 66.042969 C 43.195312 69.929688 37.921875 72.117188 32.425781 72.121094 Z M 32.425781 72.121094 " fill-opacity="1" fill-rule="nonzero"/><path fill="#00bf63" d="M 23.539062 62.582031 C 22.753906 62.578125 22.003906 62.269531 21.445312 61.714844 C 20.886719 61.160156 20.570312 60.40625 20.570312 59.621094 C 20.570312 58.835938 20.886719 58.078125 21.445312 57.527344 L 27.589844 51.386719 L 21.445312 45.242188 C 20.886719 44.691406 20.570312 43.9375 20.570312 43.152344 C 20.570312 42.363281 20.886719 41.609375 21.445312 41.058594 C 22.003906 40.507812 22.757812 40.199219 23.539062 40.199219 C 24.324219 40.199219 25.074219 40.507812 25.632812 41.058594 L 33.867188 49.292969 C 34.421875 49.847656 34.734375 50.601562 34.734375 51.386719 C 34.734375 52.171875 34.421875 52.921875 33.867188 53.480469 L 25.632812 61.714844 C 25.078125 62.269531 24.324219 62.578125 23.539062 62.582031 Z M 23.539062 62.582031 " fill-opacity="1" fill-rule="nonzero"/><path fill="#00bf63" d="M 37.027344 62.582031 C 36.242188 62.574219 35.492188 62.265625 34.933594 61.714844 C 34.382812 61.15625 34.074219 60.402344 34.074219 59.621094 C 34.074219 58.835938 34.382812 58.085938 34.933594 57.527344 L 41.074219 51.386719 L 34.933594 45.242188 C 34.347656 44.695312 34.003906 43.933594 33.992188 43.128906 C 33.976562 42.324219 34.289062 41.550781 34.859375 40.980469 C 35.425781 40.414062 36.203125 40.101562 37.003906 40.113281 C 37.808594 40.128906 38.574219 40.46875 39.121094 41.058594 L 47.355469 49.292969 C 47.910156 49.847656 48.222656 50.601562 48.222656 51.386719 C 48.222656 52.171875 47.910156 52.921875 47.355469 53.480469 L 39.121094 61.714844 C 38.566406 62.269531 37.8125 62.582031 37.027344 62.582031 Z M 37.027344 62.582031 " fill-opacity="1" fill-rule="nonzero"/></svg>